<mxfile host="65bd71144e">
    <diagram id="KxctgfbO1AO--ay-DBwz" name="Page-1">
        <mxGraphModel dx="725" dy="434" grid="1" gridSize="10" guides="1" tooltips="1" connect="1" arrows="1" fold="1" page="1" pageScale="1" pageWidth="1100" pageHeight="850" math="0" shadow="0">
            <root>
                <mxCell id="0"/>
                <mxCell id="1" parent="0"/>
                <mxCell id="2" value="S" style="rounded=1;whiteSpace=wrap;html=1;fontFamily=Verdana;fontSize=18;fillColor=#f5f5f5;fontColor=#333333;strokeColor=#666666;strokeWidth=3;fontStyle=0" parent="1" vertex="1">
                    <mxGeometry x="120" y="80" width="40" height="40" as="geometry"/>
                </mxCell>
            </root>
        </mxGraphModel>
    </diagram>
</mxfile>